External Loads File
version=1
nRows=54
nColumns=13
Range=5.000000e-03-10 seconds
endheader
time 	forceRightX 	forceRightY 	forceRightZ 	pointRightX 	pointRightY 	pointRightZ 	forceLeftX 	forceLeftY 	forceLeftZ 	pointLeftX 	pointLeftY 	pointLeftZ 		
5.005000 50.967733 624.352210 -0.000000 0.362236 0.168812 -0.124986 -7.626231 -95.445728 -0.000000 0.244791 0.475029 -0.362230
5.010000 68.300240 600.413419 -0.000000 0.353650 0.164118 -0.124949 -18.021543 -98.509525 -0.000000 0.253801 0.480137 -0.362498
5.015000 83.516823 570.731403 -0.000000 0.344981 0.160225 -0.124996 -27.589275 -100.385132 -0.000000 0.262840 0.484578 -0.362618
5.020000 96.849381 535.881571 -0.000000 0.335965 0.157028 -0.124845 -36.357623 -101.128557 -0.000000 0.271855 0.488242 -0.362758
5.025000 108.461972 496.627061 -0.000000 0.326865 0.154398 -0.124825 -44.402711 -100.793063 -0.000000 0.281287 0.491180 -0.363266
5.030000 117.246843 454.149538 -0.000000 0.317720 0.152355 -0.124729 -51.546226 -99.538063 -0.000000 0.290491 0.493522 -0.363529
5.035000 123.732063 409.343320 -0.000000 0.308293 0.151148 -0.124597 -57.904155 -97.367758 -0.000000 0.299614 0.495150 -0.363920
5.040000 127.420424 363.321014 -0.000000 0.299093 0.150487 -0.124736 -63.352498 -94.387007 -0.000000 0.308635 0.496015 -0.364213
5.045000 128.904720 316.776629 -0.000000 0.289909 0.150542 -0.124846 -68.039563 -90.545447 -0.000000 0.317684 0.496199 -0.364700
5.050000 128.033588 270.544028 -0.000000 0.280758 0.151235 -0.124920 -71.968540 -85.900493 -0.000000 0.326343 0.495651 -0.364983
5.055000 125.178944 225.172095 -0.000000 0.271701 0.152542 -0.125004 -75.359283 -80.365684 -0.000000 0.334741 0.494442 -0.365235
5.060000 120.563577 181.231943 -0.000000 0.262841 0.154387 -0.124988 -78.476941 -73.811312 -0.000000 0.342915 0.492597 -0.365488
5.065000 114.446739 139.312231 -0.000000 0.254202 0.156884 -0.124900 -81.656298 -66.032323 -0.000000 0.350771 0.489940 -0.365762
5.070000 107.085997 100.058268 -0.000000 0.245916 0.160076 -0.124783 -85.261573 -56.774875 -0.000000 0.358345 0.486522 -0.365949
5.075000 98.793537 64.070971 -0.000000 0.237803 0.163735 -0.124614 -89.691841 -45.678716 -0.000000 0.365628 0.482349 -0.366489
5.080000 89.838018 31.918568 -0.000000 0.230062 0.168030 -0.124379 -95.291751 -32.334115 -0.000000 0.372744 0.477440 -0.366495
5.085000 80.492085 4.068033 -0.000000 0.222534 0.172801 -0.124273 -102.322381 -16.354916 -0.000000 0.379387 0.471813 -0.366815
5.090000 71.061102 -19.265848 -0.000000 0.215299 0.178110 -0.124087 -110.954925 2.644232 -0.000000 0.385698 0.465461 -0.367046
5.095000 61.849861 -37.970977 -0.000000 0.208446 0.183951 -0.123922 -121.199583 24.737920 -0.000000 0.391569 0.458455 -0.367542
5.100000 53.127998 -52.170862 -0.000000 0.201943 0.190166 -0.123974 -132.931749 49.785640 -0.000000 0.397108 0.450698 -0.368018
5.105000 45.061271 -62.155922 -0.000000 0.195759 0.196899 -0.123978 -145.875102 77.400799 -0.000000 0.402516 0.442315 -0.368434
5.110000 37.826235 -68.281648 -0.000000 0.190016 0.204090 -0.123970 -159.784597 106.796659 -0.000000 0.407734 0.433428 -0.368693
5.115000 31.542224 -71.023336 -0.000000 0.184664 0.211745 -0.124052 -174.463770 137.142020 -0.000000 0.412523 0.424078 -0.369116
5.120000 26.231905 -70.908125 -0.000000 0.179748 0.219832 -0.123969 -189.661357 167.792735 -0.000000 0.416992 0.414284 -0.369593
5.125000 21.767057 -68.459103 -0.000000 0.175217 0.228588 -0.123949 -204.716952 198.632104 -0.000000 0.421644 0.404094 -0.369678
5.130000 18.344490 -64.007127 -0.000000 0.171253 0.237648 -0.123902 -219.752949 228.793976 -0.000000 0.425472 0.393540 -0.370106
5.135000 15.844359 -57.911655 -0.000000 0.167713 0.247092 -0.123956 -233.986896 258.466577 -0.000000 0.429210 0.382885 -0.370556
5.140000 14.286894 -50.463786 -0.000000 0.164735 0.257041 -0.123910 -246.893971 287.609344 -0.000000 0.432381 0.372104 -0.370761
5.145000 13.720756 -42.006653 -0.000000 0.162216 0.267072 -0.124016 -258.217734 316.048392 -0.000000 0.435036 0.361285 -0.370847
5.150000 14.035444 -32.994542 -0.000000 0.160247 0.277445 -0.124091 -267.228907 344.143220 -0.000000 0.437187 0.350410 -0.370902
5.155000 15.078961 -23.889217 -0.000000 0.158857 0.288088 -0.124191 -273.614648 372.033041 -0.000000 0.438700 0.339444 -0.370827
5.160000 16.621365 -15.105456 -0.000000 0.157437 0.298821 -0.125035 -277.388207 399.739150 -0.000000 0.439752 0.328496 -0.370813
5.165000 18.364563 -7.005689 -0.000000 0.157225 0.309752 -0.125166 -278.463032 427.428771 -0.000000 0.440312 0.317486 -0.370751
5.170000 19.992927 0.116055 -0.000000 0.157574 0.320601 -0.125181 -276.956293 455.087249 -0.000000 0.440308 0.306394 -0.370652
5.175000 21.180168 6.013665 -0.000000 0.158723 0.331648 -0.125352 -272.397760 482.916180 -0.000000 0.439828 0.295322 -0.370627
5.180000 21.591148 10.596535 -0.000000 0.160413 0.342641 -0.125632 -265.196919 510.457811 -0.000000 0.438772 0.284365 -0.370391
5.185000 20.910333 13.920277 -0.000000 0.162648 0.353646 -0.125809 -255.397122 537.445017 -0.000000 0.437001 0.273689 -0.370233
5.190000 18.942613 16.185306 -0.000000 0.165614 0.364763 -0.126000 -242.343194 563.858362 -0.000000 0.434681 0.263092 -0.370071
5.195000 15.656843 17.738518 -0.000000 0.169072 0.376349 -0.126301 -225.561582 589.379116 -0.000000 0.431692 0.252678 -0.370087
5.200000 11.068542 19.058812 -0.000000 0.173270 0.386406 -0.126615 -208.618734 612.105625 -0.000000 0.428068 0.242531 -0.370074
5.205000 5.542619 20.394052 -0.000000 0.177963 0.396928 -0.127035 -187.978959 632.768239 -0.000000 0.423846 0.232612 -0.370071
5.210000 -0.554546 22.048851 -0.000000 0.184974 0.406966 -0.125801 -163.217410 650.675671 -0.000000 0.419126 0.222967 -0.369995
5.215000 -7.060270 24.206113 -0.000000 0.189317 0.416877 -0.127547 -140.823528 663.668729 -0.000000 0.413843 0.213808 -0.369875
5.220000 -13.387719 26.995206 -0.000000 0.195981 0.426486 -0.127272 -114.447785 672.880301 -0.000000 0.407984 0.205062 -0.369817
5.225000 -19.354627 30.427652 -0.000000 0.202561 0.435496 -0.127647 -88.248168 677.025885 -0.000000 0.401666 0.196604 -0.369714
5.230000 -24.719797 34.454692 -0.000000 0.208959 0.444112 -0.128585 -62.906790 675.766685 -0.000000 0.394807 0.188826 -0.369628
5.235000 -29.131609 39.103947 -0.000000 0.217067 0.452273 -0.128093 -35.525541 669.034182 -0.000000 0.387559 0.181569 -0.369441
5.240000 -32.711049 44.039691 -0.000000 0.224830 0.459751 -0.128672 -10.324754 656.223417 -0.000000 0.379924 0.174899 -0.369301
5.245000 -35.429823 49.004474 -0.000000 0.232680 0.466844 -0.129131 13.267412 637.374178 -0.000000 0.371980 0.168827 -0.369094
5.250000 -37.323374 53.682694 -0.000000 0.241026 0.473318 -0.129125 35.624934 612.667077 -0.000000 0.363559 0.163470 -0.369098
5.255000 -38.604675 57.650991 -0.000000 0.249737 0.479097 -0.129200 55.707129 582.646281 -0.000000 0.355013 0.158729 -0.368874
5.260000 -39.560623 60.515710 -0.000000 0.258196 0.484198 -0.129119 72.576613 548.290456 -0.000000 0.346238 0.154772 -0.368563
5.265000 -40.290542 62.168005 -0.000000 0.267006 0.488751 -0.128975 87.552106 510.577401 -0.000000 0.337147 0.151584 -0.368246
5.270000 -41.092890 62.599719 -0.000000 0.275821 0.492671 -0.129098 100.249263 470.763015 -0.000000 0.327780 0.149038 -0.367956
